<?xml version="1.0" encoding="utf-8"?>
<!-- Generator: Adobe Illustrator 16.0.0, SVG Export Plug-In . SVG Version: 6.00 Build 0)  -->
<!DOCTYPE svg PUBLIC "-//W3C//DTD SVG 1.1//EN" "http://www.w3.org/Graphics/SVG/1.1/DTD/svg11.dtd">
<svg version="1.1" id="Layer_1" xmlns="http://www.w3.org/2000/svg" xmlns:xlink="http://www.w3.org/1999/xlink" x="0px" y="0px"
	 width="100px" height="100px" viewBox="0 0 100 100" enable-background="new 0 0 100 100" xml:space="preserve">
<g>
	<path fill="#60534B" d="M18.354,85h45.74c0.002-14,0.002-28.92,0.002-43.561c0-1.945,0.231-2.006-1.64-2.551
		C61.896,38.725,61,38.752,61,38.545c0,6.41,0,12.703,0,18.996c-1,0.031-0.603,0.062-0.698,0.094
		c-1.926-2.736-4.019-5.475-5.901-8.148C52.688,51.127,51,52.729,49,54.5c0-6.539,0-12.84,0-19.234c-2-0.65-4.436-1.281-6.599-1.908
		c-5.637-1.637-11.296-3.266-16.929-4.918c-0.402-0.117-0.77-0.389-1.147-0.59c0.269-0.33,0.479-0.725,0.805-0.977
		c2.71-2.09,5.447-4.143,8.155-6.234c0.903-0.697,1.827-0.844,2.921-0.525c12.267,3.576,24.539,7.131,36.81,10.691
		C74.799,31.322,75,31.604,75,33.48C75,50.893,75,68,75,85h5.807l-2.644-1.641c0.002-18.4-0.003-34.621,0.015-53.02
		c0.002-1.244-0.592-1.684-1.701-2.004c-13.596-3.926-27.186-8.414-40.774-12.363C35.318,15.861,34.953,16,34.581,15
		c-0.224,0-0.446,0-0.671,0c-4.233,4-8.456,7-12.713,10.168c-0.699,0.521-0.967,1.355-0.965,2.232
		c0.025,19.238,0.019,36.629,0.02,55.869C20.252,83.383,18.352,85,18.354,85z"/>
	<path fill="#60534B" d="M51.862,48.584c0.889-1.018,1.724-2.037,2.657-3.109c1.238,1.74,2.48,3.254,3.48,4.961
		c0-4.439,0-8.588,0-12.752c-2-0.623-4-1.232-6-1.854c0,4.303,0,8.449,0,12.598C52,48.48,51.79,48.533,51.862,48.584z"/>
	<path fill="#60534B" d="M72.072,85c-0.015-8-0.012-15.623-0.012-23.613c0-8.744,0-17.307-0.002-26.049
		c0-1.59-0.313-1.91-1.854-2.357c-10.27-2.984-20.539-5.926-30.812-8.9c-4.719-1.367-3.697-1.589-7.699,1.466
		c-0.352,0.27-0.579,0.715-0.864,1.07c0.37,0.215,0.734,0.444,1.112,0.644c0.127,0.068,0.287,0.077,0.43,0.118
		c10.842,3.145,21.649,6.288,32.491,9.437C66.864,37.395,67,37.625,67,39.688c0,14.734,0,29.467,0,44.201
		C67,84.498,66.682,85,66.682,85H72.072z"/>
</g>
</svg>
