<?xml version="1.0" encoding="utf-8"?>
<!-- Generator: Adobe Illustrator 16.0.0, SVG Export Plug-In . SVG Version: 6.00 Build 0)  -->
<!DOCTYPE svg PUBLIC "-//W3C//DTD SVG 1.1//EN" "http://www.w3.org/Graphics/SVG/1.1/DTD/svg11.dtd">
<svg version="1.1" id="Layer_1" xmlns="http://www.w3.org/2000/svg" xmlns:xlink="http://www.w3.org/1999/xlink" x="0px" y="0px"
	 width="100px" height="100px" viewBox="0 0 100 100" enable-background="new 0 0 100 100" xml:space="preserve">
<g>
	<circle fill="#60534B" cx="23.036" cy="61.177" r="2.471"/>
	<circle fill="#60534B" cx="19.993" cy="56.107" r="2.472"/>
	<path fill="#60534B" d="M4.025,77.082c0,1.947-0.022,6.702-0.022,6.702l-1.396,1.882h95.125l-1.591-1.882
		c0.002-2.943,0.004-4.21,0.004-6.448C65.223,77.336,34.442,77.082,4.025,77.082z"/>
	<path fill="#60534B" d="M20.503,68.717c1.361,0,2.471-1.105,2.471-2.472c0-1.364-1.109-2.473-2.471-2.473
		c-1.368,0-2.475,1.108-2.475,2.473C18.028,67.611,19.135,68.717,20.503,68.717z"/>
	<circle fill="#60534B" cx="26.077" cy="66.245" r="2.472"/>
	<circle fill="#60534B" cx="17.459" cy="61.177" r="2.472"/>
	<circle fill="#60534B" cx="14.417" cy="66.245" r="2.471"/>
	<path fill="#60534B" d="M44.283,53.912c5.22-4.523,3.497-8.235,4.48-8.789c1.731,2.28-0.267,5.552-0.296,9.104
		c0.372,0.241,2.321,0.776,2.79-1.288c0.51-2.271-0.397-8.051,0-8.725c1.942,0.953,1.729,8.599,2.449,8.936
		c0.368,0.173,2.619-1.152,2.45-3.507c-0.161-2.227-2.942-5.793-3.127-5.999c-0.133-0.147,0.928-0.676,0.928-0.676
		s-0.028-1.132-0.356-1.351c-0.444-0.298-2.949,0.338-3.212,0.189c-0.137-0.077,0.04-3.938-0.21-5.113
		c-0.232-1.078-0.903,0.545-0.802,0c-0.343,0.802,0.125,4.902,0.04,5.219c-0.086,0.316-2.9,0.799-3.209,1.519
		c-0.23,0.537-0.501,1.01-0.634,1.522c0,0,1.54,0.149,1.962,0.17c-0.801,3.44-4.496,6.339-4.625,7.625
		C42.785,54.036,44.049,53.669,44.283,53.912z"/>
	<polygon fill="#60534B" points="69.193,60.858 76,60.731 76,55.727 69.397,55.853 	"/>
	<path fill="#60534B" d="M6.038,27.666H4.087c0,0-0.132,7.639-0.253,8.507C3.65,37.501,5.891,35.43,6.37,36.158
		c0,0-1.161,38.068-1.058,39.588c8.661,0,26.331-0.272,26.331-0.272s-0.052-3.412-0.052-3.523c0-1.363-1.106-2.789-2.474-2.789
		c-1.365,0-2.472,1.463-2.472,2.827c0,0.108,0.021,0.678,0.032,0.678h-0.695c0.013,0,0.031-0.726,0.031-0.833
		c0-1.367-1.107-2.731-2.474-2.731c-1.364,0-2.472,1.494-2.472,2.858c0,0.107,0.021,0.706,0.033,0.706h-1.203
		c0.013,0,0.032-0.726,0.032-0.833c0-1.367-1.107-2.731-2.472-2.731c-1.365,0-2.473,1.494-2.473,2.858
		c0,0.107,0.02,0.706,0.032,0.706h-1.681c0,0-0.083-4-1.31-4c-1.224,0-2.45,0-2.45,0L9.75,36.013c8.046,0,63.03,0.11,81.279,0.11
		c0,2.025,0.258,4.822,0.258,6.492c0,10.032-0.722,22.911-0.595,32.941l3.634,0.234c0,0-0.896-39.024-0.17-39.888l2.621-0.259
		l-0.254-8.875l-3.041-0.032l-0.089-2.87L98,23.85c0,0,0-6.019,0-9.061c-34,0-63,0.063-96,0.063c0,3.044,0,6.482,0,9.465
		c2,0.243,3.108,0.526,3.916,0.617C5.843,25.628,6.202,27.666,6.038,27.666z M9.685,23.891l81.409-0.146l-0.042,3.275L9.666,26.49
		L9.685,23.891z"/>
	<path fill="#60534B" d="M72.644,41.999c-3.271,0.205-6.037,3.279-5.694,6.572c0.369,3.549,2.525,5.556,6.042,5.727
		c3.326,0.162,5.994-2.85,5.895-6.291C78.785,44.603,75.871,41.798,72.644,41.999z"/>
	<path fill="#60534B" d="M61.689,75.687c0.826-7.224,2.093-9.759,3.55-12.103c0,0-0.114,8.495,0.064,11.976
		c0.492-0.016,2.154-0.11,2.661-0.125c0-6.405-0.538-13.075-0.538-20.024c-7.383,2.724-8.209,9.821-9.983,16.03
		c-0.222-0.46-0.552,0.214-0.759-0.125c-0.79-1.301,0.506-3.994-1.839-3.994c-2.343,0-3.61,1.523-4.371,4.119l-1.204,0.127
		c-0.262-0.63,0.029-3.021-0.063-3.232c-0.697-1.581-3.229-0.939-4.309-0.314c-0.847-0.152-1.808,3.935-2.535,3.737
		c-1.504-0.408,0.823-4.877-2.027-4.877c-0.834,0-2.163,0.619-2.93,1.836c-0.531,0.84-0.501,2.208-1.064,2.851
		c-0.608,0.705-2.533,0.126-2.533,0.126s-0.242,2.595,0,3.866C42.344,75.56,53.406,75.942,61.689,75.687z"/>
	<path fill="#60534B" d="M34.062,45.123c1.732,2.28-0.268,5.552-0.296,9.104c0.371,0.241,2.321,0.776,2.787-1.288
		c0.513-2.271-0.395-8.051,0.001-8.725c1.943,0.953,1.731,8.599,2.45,8.936c0.369,0.173,2.62-1.152,2.452-3.507
		c-0.163-2.227-2.943-5.793-3.128-5.999c-0.132-0.147,0.93-0.676,0.93-0.676s-0.031-1.132-0.36-1.351
		c-0.443-0.298-2.947,0.338-3.211,0.189c-0.137-0.077,0.044-3.938-0.211-5.113c-0.231-1.078-0.902,0.545-0.801,0
		c-0.344,0.802,0.127,4.902,0.041,5.219c-0.083,0.316-2.902,0.799-3.21,1.519c-0.23,0.537-0.499,1.01-0.636,1.522
		c0,0,1.544,0.149,1.966,0.17c-0.803,3.44-4.498,6.339-4.624,7.625c-0.128,1.288,1.135,0.921,1.371,1.164
		C34.803,49.389,33.077,45.677,34.062,45.123z"/>
	<path fill="#60534B" d="M83.364,75.18c0,0,2.793,0.051,5.007,0.318c0.597-8.611-4.436-19.202-10.837-20.153l-0.38,20.28
		c0,0,2.704-0.558,3.295,0.126c0.217-4.156-0.688-8.802-0.508-12.292C80.252,63.397,83.001,72.853,83.364,75.18z"/>
</g>
</svg>
