<?xml version="1.0" encoding="utf-8"?>
<!-- Generator: Adobe Illustrator 16.0.0, SVG Export Plug-In . SVG Version: 6.00 Build 0)  -->
<!DOCTYPE svg PUBLIC "-//W3C//DTD SVG 1.1//EN" "http://www.w3.org/Graphics/SVG/1.1/DTD/svg11.dtd">
<svg version="1.1" id="Layer_1" xmlns="http://www.w3.org/2000/svg" xmlns:xlink="http://www.w3.org/1999/xlink" x="0px" y="0px"
	 width="100px" height="100px" viewBox="0 0 100 100" enable-background="new 0 0 100 100" xml:space="preserve">
<path fill-rule="evenodd" clip-rule="evenodd" fill="#60534B" d="M26.622,69.56c3.268,2.301,7.004,1.701,9.805-1.143
	c0.189-0.191,0.671-0.477,0.808-0.721C37.361,67.767,38,67.835,38,67.907c0,0.471,0,0.941,0,1.412c0,4.818-0.207,9.61-0.213,14.274
	L36.066,85h22.411c1.69-4,4.722-10.789,6.401-15.146C65.668,70.107,68,71.112,68,71.112c0-3.16,0-5.844,0-8.803
	c2,3.461,2.246,7.111,2.771,11.084c-1.822-0.684-3.722-1.456-5.426-2.093C63.755,75.432,61.348,81,59.771,85h27.786l-0.759-1.6
	c0.442-0.777,0.884-2.112,1.327-3.263c-2.388-0.928-4.626-1.736-6.889-2.562c-0.705-0.256-0.997-0.537-1.068-1.326
	c-0.499-5.566-1.559-10.99-3.632-16.207c-2.723-6.854-6.818-12.577-13.466-16.136c-1.158-0.619-2.514-1.16-3.793-1.199
	c-4.83-0.139-9.673-0.18-14.501-0.004c-2.743,0.102-5.083,1.202-6.518,3.88c-2.222,4.146-4.626,8.193-6.955,12.281
	c-0.291,0.514-0.589,1.025-1.04,1.807c-1.688-2.309-3.289-4.371-4.745-6.535c-1.118-1.662-2.459-2.832-4.56-2.877
	c-0.098-0.418-0.188-0.771-0.264-1.131c-2.111-10.047-4.227-20.094-6.32-30.146c-0.193-0.932-0.459-1.783-1.603-1.523
	c-1.067,0.244-0.967,1.111-0.782,1.986c2.141,10.168,4.27,20.336,6.365,30.512c0.086,0.42-0.061,1.066-0.352,1.357
	c-2.016,2.02-2.318,4.293-0.717,6.633c1.248,1.824,2.437,3.715,3.891,5.367C22.841,66.204,24.583,68.124,26.622,69.56z
	 M52.024,44.14c1.027,0.006,1.66,0.592,1.665,1.539c0.007,1.164-0.798,2.217-1.69,2.211c-0.882-0.006-1.677-1.078-1.658-2.238
	C50.357,44.692,50.98,44.132,52.024,44.14z M50.328,55.036c0.137-1.344,0.256-2.689,0.406-4.031
	c0.069-0.607,0.102-1.246,0.325-1.801c0.143-0.355,0.595-0.793,0.924-0.809c0.313-0.014,0.727,0.424,0.952,0.76
	c0.188,0.279,0.203,0.695,0.236,1.057c0.552,5.947,1.097,11.896,1.64,17.846c0.167,1.828-0.776,3.15-2.106,4.188
	c-0.336,0.262-1.21,0.266-1.551,0.01c-1.272-0.955-2.242-2.166-2.162-4.033C49.43,63.909,49.881,59.472,50.328,55.036z
	 M63.735,26.285c0,8.439-5.3,13.867-11.828,13.832c-6.295-0.033-11.449-4.525-11.449-13.965c0.018-6.033,5.269-10.992,11.647-11
	C58.493,15.145,63.758,20.186,63.735,26.285z"/>
</svg>
