<?xml version="1.0" encoding="utf-8"?>
<!-- Generator: Adobe Illustrator 16.0.0, SVG Export Plug-In . SVG Version: 6.00 Build 0)  -->
<!DOCTYPE svg PUBLIC "-//W3C//DTD SVG 1.1//EN" "http://www.w3.org/Graphics/SVG/1.1/DTD/svg11.dtd">
<svg version="1.1" id="Layer_1" xmlns="http://www.w3.org/2000/svg" xmlns:xlink="http://www.w3.org/1999/xlink" x="0px" y="0px"
	 width="125.177px" height="106.288px" viewBox="0 0 125.177 106.288" enable-background="new 0 0 125.177 106.288"
	 xml:space="preserve">
<g>
	<path fill="#011D2E" d="M2.354,73.475c1.502-1.781,7.993-2.869,15.772-2.869c1.152-0.002,2.277,0.023,3.361,0.07l1.832,6.853
		c-1.667,0.261-3.418,0.427-5.305,0.427c-7.779,0-14.271-1.09-15.771-2.87c-0.066-0.079-0.379-0.445-0.367-0.806
		C1.89,73.92,2.227,73.567,2.354,73.475z"/>
	<path opacity="0.5" fill="#F8D890" d="M64.715,8.926c-24.417,0-44.212,19.794-44.212,44.213c0,24.418,19.795,44.212,44.212,44.212
		c24.419,0,44.213-19.794,44.213-44.212C108.928,28.72,89.134,8.926,64.715,8.926z"/>
	<g id="XMLID_3_">
		<g>
			<path fill="#011D2E" d="M117.408,63.017c0.741,2.884-0.336,6.766-2.457,8.848l-32.448,31.848
				c-1.588,1.565-4.241,2.575-6.766,2.575c-0.758,0-1.47-0.096-2.121-0.274L29.808,93.844c-2.861-0.796-5.688-3.68-6.429-6.552
				L12.013,43.265c-0.74-2.878,0.337-6.76,2.458-8.841L46.918,2.569C48.506,1.01,51.16,0,53.684,0c0.757,0,1.47,0.095,2.121,0.275
				l43.809,12.168c2.867,0.802,5.688,3.669,6.43,6.553L117.408,63.017z M112.987,69.862c1.397-1.369,2.194-4.247,1.706-6.144
				l-4.46-17.273c0.319,2.183,0.488,4.415,0.488,6.693c0,11.103-3.928,21.279-10.469,29.229L112.987,69.862z M107.776,36.931
				l-4.449-17.234c-0.488-1.902-2.575-4.028-4.466-4.544l-17.206-4.791C93.678,15.13,103.215,24.802,107.776,36.931z
				 M108.926,53.138c0-24.415-19.798-44.207-44.212-44.207c-24.421,0-44.213,19.792-44.213,44.207
				c0,24.421,19.792,44.218,44.213,44.218C89.128,97.356,108.926,77.559,108.926,53.138z M80.539,101.721l12.803-12.572
				c-7.86,6.25-17.801,10.009-28.628,10.009c-2.586,0-5.111-0.225-7.58-0.64l17.234,4.791c0.404,0.117,0.864,0.174,1.369,0.174
				C77.504,103.483,79.479,102.759,80.539,101.721z M72.275,7.764L55.053,2.979c-0.404-0.112-0.864-0.174-1.369-0.174
				c-1.767,0-3.742,0.729-4.802,1.761L36.074,17.144C43.934,10.883,53.88,7.13,64.714,7.13C67.288,7.13,69.812,7.354,72.275,7.764z
				 M30.554,91.135l17.217,4.779c-12.028-4.774-21.57-14.445-26.131-26.58l4.454,17.256C26.582,88.493,28.669,90.608,30.554,91.135z
				 M29.174,23.916l-12.74,12.51c-1.397,1.375-2.194,4.241-1.706,6.138l4.466,17.301c-0.32-2.193-0.494-4.438-0.494-6.727
				C18.7,42.047,22.633,31.865,29.174,23.916z"/>
			<path fill="#FFFFFF" d="M114.693,63.718c0.488,1.896-0.309,4.774-1.706,6.144l-12.734,12.505
				c6.541-7.949,10.469-18.126,10.469-29.229c0-2.278-0.169-4.51-0.488-6.693L114.693,63.718z"/>
			<path fill="#FFFFFF" d="M103.327,19.697l4.449,17.234c-4.562-12.129-14.099-21.8-26.121-26.569l17.206,4.791
				C100.752,15.669,102.839,17.795,103.327,19.697z"/>
			<path fill="#FFFFFF" d="M93.342,89.149l-12.803,12.572c-1.06,1.038-3.035,1.762-4.802,1.762c-0.505,0-0.965-0.057-1.369-0.174
				l-17.234-4.791c2.468,0.415,4.993,0.64,7.58,0.64C75.541,99.158,85.481,95.399,93.342,89.149z"/>
			<path fill="#FFFFFF" d="M55.053,2.979l17.223,4.785c-2.463-0.41-4.987-0.634-7.562-0.634c-10.833,0-20.78,3.753-28.64,10.014
				L48.882,4.566c1.061-1.032,3.035-1.761,4.802-1.761C54.189,2.805,54.649,2.867,55.053,2.979z"/>
			<path fill="#FFFFFF" d="M47.771,95.915l-17.217-4.779c-1.885-0.527-3.972-2.643-4.46-4.545L21.64,69.334
				C26.201,81.469,35.743,91.14,47.771,95.915z"/>
			<path fill="#FFFFFF" d="M16.434,36.426l12.74-12.51C22.633,31.865,18.7,42.047,18.7,53.138c0,2.289,0.174,4.533,0.494,6.727
				l-4.466-17.301C14.24,40.667,15.037,37.8,16.434,36.426z"/>
		</g>
		<g>
		</g>
	</g>
	<g>
		
			<image overflow="visible" opacity="0.5" width="81" height="81" xlink:href="E75C6BDC3BCC3F74.png"  transform="matrix(1 0 0 1 23.0488 12.5161)">
		</image>
		<g>
			<linearGradient id="SVGID_1_" gradientUnits="userSpaceOnUse" x1="64.7139" y1="90.4106" x2="64.7139" y2="15.8652">
				<stop  offset="0" style="stop-color:#403022"/>
				<stop  offset="0.3074" style="stop-color:#593D23"/>
				<stop  offset="0.9577" style="stop-color:#995D27"/>
				<stop  offset="1" style="stop-color:#9D5F27"/>
			</linearGradient>
			<path fill="url(#SVGID_1_)" d="M69.521,90.097c20.377-2.649,34.804-21.386,32.152-41.764
				c-2.648-20.378-21.385-34.803-41.768-32.155c-20.377,2.65-34.799,21.389-32.15,41.764C30.405,78.324,49.141,92.747,69.521,90.097
				z"/>
		</g>
	</g>
	<g>
		<path fill="#E48B31" d="M100.976,48.424c0,0-0.09-0.439-0.257-1.264c-0.084-0.412-0.188-0.92-0.31-1.518
			c-0.063-0.298-0.118-0.622-0.203-0.96c-0.103-0.333-0.211-0.688-0.325-1.062c-0.234-0.746-0.47-1.579-0.769-2.47
			c-0.364-0.869-0.759-1.809-1.18-2.812c-0.442-0.993-1.049-1.984-1.611-3.063c-0.597-1.061-1.366-2.092-2.088-3.213
			c-0.391-0.541-0.846-1.051-1.278-1.594c-0.454-0.524-0.854-1.114-1.374-1.612c-1.03-1.003-2.008-2.132-3.227-3.06
			c-2.28-2.038-5.065-3.706-8.022-5.202c-2.991-1.465-6.313-2.432-9.738-3.063c-3.449-0.552-7.012-0.542-10.53-0.159
			c-3.532,0.538-6.94,1.429-10.139,2.846c-3.149,1.485-6.114,3.27-8.631,5.451c-2.477,2.202-4.74,4.528-6.425,7.081
			c-0.94,1.209-1.597,2.549-2.336,3.783c-0.376,0.615-0.611,1.287-0.917,1.91c-0.279,0.635-0.588,1.245-0.828,1.867
			c-0.412,1.269-0.892,2.462-1.196,3.64c-0.269,1.187-0.602,2.301-0.775,3.374c-0.15,1.078-0.291,2.087-0.421,3.02
			c-0.062,0.939-0.076,1.806-0.112,2.588c-0.015,0.392-0.029,0.762-0.042,1.111c0.004,0.348,0.034,0.674,0.048,0.978
			c0.035,0.608,0.065,1.126,0.089,1.545c0.048,0.84,0.074,1.288,0.074,1.288s-0.044-0.446-0.128-1.283
			c-0.042-0.419-0.094-0.936-0.154-1.543c-0.026-0.305-0.072-0.631-0.089-0.98c0.002-0.35,0.005-0.723,0.007-1.116
			c0.011-0.787-0.001-1.66,0.031-2.608c0.102-0.945,0.212-1.967,0.33-3.059c0.142-1.089,0.441-2.224,0.677-3.436
			c0.272-1.204,0.744-2.42,1.136-3.718c0.231-0.637,0.532-1.262,0.804-1.913c0.297-0.639,0.525-1.328,0.895-1.96
			c0.726-1.269,1.373-2.648,2.306-3.899c1.669-2.635,3.927-5.071,6.463-7.329c2.563-2.249,5.59-4.099,8.812-5.642
			c3.262-1.473,6.833-2.431,10.394-2.986c3.618-0.374,7.276-0.358,10.811,0.231c3.511,0.668,6.908,1.684,9.962,3.202
			c3.029,1.534,5.833,3.313,8.121,5.433c1.223,0.971,2.2,2.139,3.227,3.179c0.52,0.517,0.916,1.125,1.367,1.667
			c0.429,0.56,0.88,1.087,1.266,1.644c0.711,1.155,1.479,2.208,2.049,3.303c0.538,1.112,1.118,2.132,1.533,3.148
			c0.394,1.026,0.761,1.985,1.101,2.873c0.274,0.91,0.486,1.759,0.698,2.517c0.104,0.38,0.201,0.739,0.293,1.077
			c0.072,0.342,0.112,0.668,0.164,0.968c0.097,0.602,0.179,1.114,0.245,1.53C100.904,47.981,100.976,48.424,100.976,48.424z"/>
	</g>
	<g>
		
			<image overflow="visible" opacity="0.5" width="109" height="35" xlink:href="E75C6BDC3BCC3F7E.png"  transform="matrix(1 0 0 1 10.0488 46.5161)">
		</image>
		<g>
			<path d="M116.67,57.901c-1.307,0.175-2.735,0.309-4.261,0.396c-1.383,0.079-2.838,0.121-4.344,0.121
				c-4.102,0-7.563-0.784-10.918-1.626c-0.08-0.016-0.166-0.029-0.244-0.045v-0.016l0,0c-3.83-0.967-9.585-1.988-17.158-1.988
				c-7.574,0-23.455,0-32.976,0c-9.521,0-18.128-4.553-28.052-4.553c-1.396,0-2.754,0.041-4.061,0.118l5.29,20.492
				c3.526,0.146,6.596,0.845,9.577,1.594c0.08,0.016,0.166,0.029,0.244,0.045v0.016l0,0c3.83,0.967,11.234,1.988,17.001,1.988
				s25.261,0,32.976,0c5.767,0,13.131,2.544,20.628,3.828l13.61-13.359C115.677,63.247,116.702,60.432,116.67,57.901z"/>
		</g>
	</g>
	<g>
		<path fill="#FFFFFF" d="M53.388,40.819c0,1.073-0.175,2.033-0.526,2.88c-0.351,0.848-0.854,1.503-1.507,1.968
			c-0.654,0.464-1.41,0.697-2.267,0.697c-1.021,0-1.817-0.298-2.387-0.895c-0.571-0.596-0.855-1.433-0.855-2.509
			c0-1.053,0.191-2.014,0.574-2.883c0.383-0.869,0.908-1.539,1.576-2.01s1.421-0.706,2.258-0.706c0.973,0,1.739,0.307,2.297,0.921
			S53.388,39.742,53.388,40.819z M50.176,38.271c-0.626,0-1.187,0.202-1.681,0.604c-0.495,0.403-0.878,0.963-1.151,1.681
			c-0.273,0.718-0.41,1.512-0.41,2.381c0,0.794,0.195,1.413,0.586,1.857c0.391,0.445,0.921,0.667,1.591,0.667
			c0.606,0,1.149-0.194,1.63-0.583c0.48-0.389,0.86-0.946,1.14-1.672c0.279-0.726,0.419-1.529,0.419-2.411
			c0-0.793-0.188-1.413-0.562-1.857C51.362,38.493,50.842,38.271,50.176,38.271z"/>
		<path fill="#FFFFFF" d="M58.132,46.245l0.885-4.14c0.08-0.415,0.12-0.702,0.12-0.861c0-0.251-0.071-0.453-0.212-0.604
			c-0.142-0.152-0.368-0.228-0.679-0.228c-0.355,0-0.701,0.12-1.038,0.359s-0.634,0.581-0.891,1.023
			c-0.257,0.443-0.452,0.979-0.583,1.609l-0.604,2.841h-1.005l1.4-6.556h0.831l-0.131,1.214h0.06
			c0.383-0.487,0.753-0.831,1.11-1.032c0.357-0.202,0.727-0.302,1.11-0.302c0.506,0,0.906,0.139,1.199,0.416
			c0.293,0.277,0.439,0.665,0.439,1.164c0,0.315-0.046,0.674-0.137,1.077l-0.855,4.02H58.132z"/>
		<path fill="#FFFFFF" d="M62.188,46.245h-1.005l1.986-9.308h1.005L62.188,46.245z"/>
		<path fill="#FFFFFF" d="M64.539,39.688h1.005l0.442,3.26c0.04,0.275,0.079,0.681,0.117,1.217c0.037,0.536,0.057,0.968,0.057,1.295
			h0.035c0.141-0.347,0.313-0.746,0.521-1.196c0.207-0.451,0.36-0.762,0.46-0.933l1.944-3.643h1.064l-4.163,7.669
			c-0.371,0.686-0.737,1.162-1.101,1.43c-0.363,0.267-0.8,0.401-1.311,0.401c-0.287,0-0.566-0.042-0.837-0.126v-0.808
			c0.251,0.072,0.513,0.108,0.783,0.108c0.327,0,0.607-0.101,0.841-0.302c0.232-0.201,0.459-0.5,0.679-0.894l0.454-0.813
			L64.539,39.688z"/>
		<path fill="#FFFFFF" d="M74.152,46.245h-1.006l1.4-6.556h1.005L74.152,46.245z M74.828,38.014c0-0.224,0.063-0.406,0.191-0.547
			c0.127-0.142,0.293-0.212,0.496-0.212c0.352,0,0.526,0.179,0.526,0.538c0,0.22-0.067,0.405-0.2,0.557
			c-0.134,0.151-0.288,0.227-0.464,0.227c-0.159,0-0.291-0.049-0.395-0.146C74.879,38.332,74.828,38.193,74.828,38.014z"/>
		<path fill="#FFFFFF" d="M80.266,46.245l0.885-4.14c0.08-0.415,0.12-0.702,0.12-0.861c0-0.251-0.071-0.453-0.212-0.604
			c-0.143-0.152-0.368-0.228-0.68-0.228c-0.354,0-0.701,0.12-1.037,0.359c-0.338,0.239-0.635,0.581-0.892,1.023
			c-0.257,0.443-0.452,0.979-0.583,1.609l-0.604,2.841h-1.005l1.4-6.556h0.83l-0.131,1.214h0.06c0.383-0.487,0.753-0.831,1.11-1.032
			c0.356-0.202,0.727-0.302,1.109-0.302c0.506,0,0.906,0.139,1.199,0.416c0.293,0.277,0.439,0.665,0.439,1.164
			c0,0.315-0.046,0.674-0.137,1.077l-0.855,4.02H80.266z"/>
	</g>
	<g>
		<g>
			<path fill="#011D2E" d="M122.979,53.748c-0.994-1.18-4.184-2.056-8.485-2.512l1.198,4.645c0.149,0.577,0.221,1.195,0.23,1.831
				c3.628-0.486,6.277-1.297,7.168-2.354c0.066-0.078,0.379-0.445,0.367-0.805C123.443,54.193,123.107,53.839,122.979,53.748z"/>
			<path fill="#011D2E" d="M2.088,73.448c-0.066,0.079-0.38,0.445-0.367,0.805c0.012,0.36,0.349,0.714,0.477,0.805
				c1.404,1.667,7.176,2.727,14.283,2.856l-1.877-7.267C8.323,70.909,3.373,71.922,2.088,73.448z"/>
		</g>
		<g>
			<path fill="#FFFFFF" d="M114.269,50.366l0.225,0.87c4.302,0.457,7.491,1.332,8.485,2.512c0.129,0.091,0.465,0.445,0.479,0.805
				c0.012,0.359-0.301,0.727-0.367,0.805c-1.211,1.438-5.67,2.422-11.428,2.75c-1.384,0.078-2.838,0.121-4.344,0.121
				c-4.103,0-7.564-0.785-10.918-1.627c-0.08-0.016-0.166-0.029-0.244-0.045v-0.016c-0.002,0-0.002,0-0.002,0
				c-3.829-0.967-9.584-1.988-17.157-1.988s-23.454,0-32.976,0C36.501,54.553,27.893,50,17.971,50C8.046,50,0,52.039,0,54.553
				c0,0.83,0,3.723,0,4.553v15.146c0,2.408,7.372,4.377,16.707,4.541l-0.227-0.88c-7.107-0.13-12.879-1.189-14.283-2.856
				c-0.128-0.091-0.465-0.444-0.477-0.805c-0.013-0.359,0.301-0.726,0.367-0.805c1.285-1.525,6.235-2.539,12.516-2.801
				c1.053-0.043,2.139-0.068,3.256-0.068c4.101,0,7.563,0.783,10.917,1.625c0.081,0.016,0.167,0.03,0.245,0.046v0.015l0,0
				c3.83,0.967,11.234,1.988,17,1.988c5.768,0,25.262,0,32.976,0s18.286,4.554,28.211,4.554c9.923,0,17.969-2.038,17.969-4.554
				c0-0.829,0-3.723,0-4.553V54.553C125.177,52.674,120.682,51.062,114.269,50.366z"/>
		</g>
		<g>
			
				<image overflow="visible" opacity="0.3" width="53" height="15" xlink:href="E75C6BDC3BCC3F7F.png"  transform="matrix(1 0 0 1 37.0488 57.5161)">
			</image>
			<g>
				<g>
					<path fill="#403022" d="M40.161,67.065h0.348c0.157,0,0.236-0.09,0.247-0.247l0.516-6.472h1.525l1.638,3.791
						c0.19,0.46,0.392,1.066,0.392,1.066h0.022c0,0,0.202-0.606,0.393-1.066l1.638-3.791h1.525l0.516,6.472
						c0.011,0.157,0.09,0.247,0.247,0.247h0.348v1.244h-1.267c-0.527,0-0.707-0.224-0.751-0.762l-0.269-3.545
						c-0.045-0.527-0.011-1.233-0.011-1.233h-0.022c0,0-0.236,0.785-0.438,1.233l-1.323,2.939h-1.189l-1.323-2.939
						c-0.202-0.448-0.438-1.244-0.438-1.244H42.46c0,0,0.034,0.717-0.011,1.244l-0.258,3.545c-0.045,0.538-0.236,0.762-0.763,0.762
						h-1.268V67.065z"/>
					<path fill="#403022" d="M52.984,62.456c1.637,0,2.535,1.199,2.535,2.714c0,0.168-0.034,0.526-0.034,0.526h-3.948
						c0.112,1.01,0.853,1.537,1.716,1.537c0.92,0,1.604-0.639,1.604-0.639l0.594,0.986c0,0-0.875,0.863-2.299,0.863
						c-1.895,0-3.073-1.368-3.073-2.994C50.079,63.689,51.268,62.456,52.984,62.456z M54.061,64.709
						c-0.022-0.684-0.494-1.155-1.077-1.155c-0.729,0-1.245,0.438-1.402,1.155H54.061z"/>
					<path fill="#403022" d="M58.931,62.456c1.245,0,1.648,0.695,1.648,0.695h0.022c0,0-0.011-0.146-0.011-0.337v-1.009
						c0-0.168-0.09-0.247-0.247-0.247h-0.449v-1.212h1.357c0.527,0,0.763,0.236,0.763,0.764v5.753c0,0.157,0.09,0.247,0.247,0.247
						h0.438v1.199h-1.312c-0.516,0-0.707-0.246-0.707-0.582c0-0.124,0-0.214,0-0.214h-0.022c0,0-0.471,0.931-1.783,0.931
						c-1.548,0-2.546-1.223-2.546-2.994C56.329,63.633,57.417,62.456,58.931,62.456z M60.624,65.438c0-0.886-0.46-1.76-1.413-1.76
						c-0.785,0-1.436,0.639-1.436,1.771c0,1.088,0.572,1.795,1.413,1.795C59.929,67.245,60.624,66.706,60.624,65.438z"/>
					<path fill="#403022" d="M66.213,62.456c1.637,0,2.534,1.199,2.534,2.714c0,0.168-0.034,0.526-0.034,0.526h-3.947
						c0.112,1.01,0.853,1.537,1.716,1.537c0.92,0,1.604-0.639,1.604-0.639l0.594,0.986c0,0-0.875,0.863-2.299,0.863
						c-1.896,0-3.073-1.368-3.073-2.994C63.308,63.689,64.496,62.456,66.213,62.456z M67.289,64.709
						c-0.022-0.684-0.494-1.155-1.076-1.155c-0.729,0-1.246,0.438-1.402,1.155H67.289z"/>
					<path fill="#403022" d="M70.096,61.805c0-0.168-0.09-0.247-0.247-0.247H69.4v-1.212h1.357c0.526,0,0.762,0.236,0.762,0.764
						v5.753c0,0.157,0.09,0.247,0.247,0.247h0.438v1.199h-1.347c-0.537,0-0.762-0.224-0.762-0.762V61.805z"/>
					<path fill="#403022" d="M73.36,61.805c0-0.168-0.09-0.247-0.247-0.247h-0.449v-1.212h1.357c0.527,0,0.764,0.236,0.764,0.764
						v5.753c0,0.157,0.089,0.247,0.246,0.247h0.438v1.199h-1.346c-0.539,0-0.763-0.224-0.763-0.762V61.805z"/>
					<path fill="#403022" d="M76.715,64.047c0-0.168-0.09-0.246-0.246-0.246H76.02V62.59h1.357c0.527,0,0.762,0.234,0.762,0.762
						v3.511c0,0.157,0.09,0.247,0.248,0.247h0.437v1.199h-1.346c-0.538,0-0.763-0.224-0.763-0.762V64.047z M77.646,60.346h1.356
						l-1.167,1.537h-1.043L77.646,60.346z"/>
					<path fill="#403022" d="M80.047,64.047c0-0.168-0.09-0.246-0.246-0.246h-0.449V62.59h1.312c0.504,0,0.752,0.234,0.752,0.639
						v0.168c0,0.123-0.023,0.247-0.023,0.247h0.023c0.246-0.482,0.863-1.188,2.018-1.188c1.268,0,1.996,0.661,1.996,2.176v2.231
						c0,0.157,0.09,0.247,0.248,0.247h0.447v1.199h-1.356c-0.538,0-0.763-0.224-0.763-0.762v-2.625c0-0.695-0.18-1.166-0.896-1.166
						c-0.764,0-1.335,0.482-1.537,1.166c-0.078,0.236-0.112,0.494-0.112,0.763v2.624h-1.413V64.047z"/>
				</g>
			</g>
		</g>
		<g>
			<path fill="#403022" d="M95.477,74.764c0,0,0.464,0.113,1.276,0.311c0.815,0.166,1.983,0.378,3.405,0.527
				c2.838,0.303,6.65,0.44,10.443,0.209c1.896-0.111,3.781-0.329,5.533-0.584c0.879-0.101,1.721-0.252,2.518-0.381
				c0.797-0.126,1.547-0.299,2.215-0.472c0.661-0.192,1.242-0.415,1.736-0.692c0.49-0.273,0.891-0.56,1.199-0.82
				c0.307-0.264,0.504-0.515,0.611-0.696c0.105-0.184,0.115-0.296,0.115-0.296h0.1c0,0,0.019,0.137-0.055,0.365
				c-0.07,0.23-0.246,0.531-0.52,0.869c-0.271,0.34-0.654,0.707-1.147,1.059c-0.486,0.35-1.095,0.707-1.792,0.963
				c-0.704,0.237-1.455,0.467-2.27,0.657c-0.808,0.212-1.676,0.341-2.57,0.476c-1.797,0.231-3.723,0.331-5.644,0.354
				c-3.842,0.075-7.682-0.186-10.521-0.663c-1.42-0.224-2.591-0.501-3.402-0.712c-0.801-0.239-1.259-0.376-1.259-0.376
				L95.477,74.764z"/>
		</g>
		<g>
			<path fill="#403022" d="M95.477,59.583c0,0,0.464,0.113,1.276,0.311c0.815,0.166,1.983,0.379,3.405,0.527
				c2.838,0.304,6.65,0.441,10.443,0.209c1.895-0.111,3.781-0.328,5.532-0.583c0.88-0.101,1.722-0.253,2.519-0.382
				c0.797-0.125,1.546-0.299,2.213-0.471c0.662-0.193,1.244-0.416,1.738-0.693c0.488-0.271,0.891-0.559,1.199-0.819
				c0.307-0.264,0.504-0.515,0.611-0.696c0.105-0.184,0.115-0.295,0.115-0.295h0.1c0,0,0.019,0.136-0.055,0.365
				c-0.071,0.229-0.246,0.531-0.52,0.867c-0.271,0.34-0.654,0.709-1.148,1.06c-0.486,0.35-1.094,0.706-1.793,0.962
				c-0.703,0.238-1.454,0.469-2.268,0.658c-0.809,0.212-1.677,0.34-2.571,0.475c-1.796,0.232-3.722,0.332-5.643,0.354
				c-3.842,0.076-7.683-0.186-10.521-0.662c-1.42-0.225-2.591-0.502-3.402-0.713c-0.801-0.238-1.259-0.375-1.259-0.375
				L95.477,59.583z"/>
		</g>
		<g>
			<path fill="#403022" d="M30.072,53.922c0,0-0.464-0.113-1.276-0.31c-0.815-0.166-1.983-0.378-3.405-0.527
				c-2.838-0.304-6.65-0.441-10.443-0.209c-1.896,0.111-3.781,0.329-5.533,0.583c-0.879,0.101-1.721,0.252-2.518,0.381
				c-0.797,0.125-1.546,0.299-2.214,0.471c-0.661,0.193-1.243,0.416-1.737,0.693c-0.489,0.272-0.891,0.559-1.199,0.82
				c-0.307,0.263-0.504,0.514-0.611,0.695c-0.105,0.184-0.115,0.295-0.115,0.295h-0.1c0,0-0.019-0.135,0.055-0.365
				c0.07-0.229,0.246-0.53,0.52-0.867c0.271-0.34,0.654-0.708,1.147-1.059c0.487-0.35,1.095-0.707,1.793-0.962
				c0.704-0.238,1.455-0.468,2.269-0.658c0.809-0.212,1.677-0.34,2.571-0.475c1.796-0.232,3.722-0.332,5.643-0.354
				c3.842-0.075,7.682,0.186,10.521,0.664c1.42,0.224,2.591,0.501,3.402,0.711c0.801,0.24,1.259,0.376,1.259,0.376L30.072,53.922z"
				/>
		</g>
		<g>
			<path fill="#403022" d="M30.072,69.102c0,0-0.464-0.112-1.276-0.31c-0.815-0.166-1.983-0.378-3.405-0.527
				c-2.838-0.304-6.65-0.44-10.443-0.21c-1.896,0.111-3.781,0.33-5.533,0.584c-0.879,0.101-1.721,0.252-2.518,0.381
				C6.1,69.146,5.35,69.319,4.683,69.492c-0.662,0.192-1.243,0.415-1.737,0.692c-0.489,0.273-0.891,0.56-1.199,0.82
				c-0.307,0.264-0.504,0.516-0.611,0.696c-0.105,0.184-0.115,0.296-0.115,0.296h-0.1c0,0-0.019-0.137,0.055-0.365
				c0.071-0.23,0.246-0.531,0.52-0.868c0.271-0.341,0.654-0.708,1.147-1.06c0.486-0.35,1.095-0.707,1.793-0.963
				c0.704-0.237,1.454-0.467,2.269-0.657c0.809-0.212,1.677-0.341,2.57-0.476c1.797-0.23,3.723-0.33,5.644-0.354
				c3.842-0.075,7.682,0.186,10.521,0.664c1.42,0.224,2.591,0.5,3.402,0.711c0.801,0.24,1.259,0.377,1.259,0.377L30.072,69.102z"/>
		</g>
	</g>
</g>
</svg>
